Coordinates
version=1
nRows=17
nColumns=38
inDegrees=no

Units are S.I. units (second, meters, Newtons, ...)
If the header above contains a line with 'inDegrees', this indicates whether rotational values are in degrees (yes) or radians (no).

endheader
time	pelvis_tilt	pelvis_list	pelvis_rotation	pelvis_tx	pelvis_ty	pelvis_tz	hip_flexion_r	hip_adduction_r	hip_rotation_r	knee_angle_r	ankle_angle_r	subtalar_angle_r	mtp_angle_r	hip_flexion_l	hip_adduction_l	hip_rotation_l	knee_angle_l	ankle_angle_l	subtalar_angle_l	mtp_angle_l	lumbar_extension	lumbar_bending	lumbar_rotation	arm_flex_r	arm_add_r	arm_rot_r	elbow_flex_r	pro_sup_r	wrist_flex_r	wrist_dev_r	arm_flex_l	arm_add_l	arm_rot_l	elbow_flex_l	pro_sup_l	wrist_flex_l	wrist_dev_l
0.48	-2.94664	1.15866	1.47246	0.581069	0.990705	1.01047	0.643118	0.0678578	-0.0408589	0.232055	-0.181123	0	0	0.434555	-0.255583	-0.216952	0.99525	-0.698132	0	0	0.325384	0.123924	-0.112601	-0.185926	-0.342963	0.369366	0.343193	1.2092	0	0	-0.313046	-0.0706525	-0.508055	0.52856	1.06047	0	0
0.49	-2.93576	1.15634	1.47107	0.580342	0.979311	1.01091	0.632632	0.0702013	-0.0460622	0.231481	-0.1717	0	0	0.470856	-0.255771	-0.188286	1.04256	-0.698132	0	0	0.325838	0.125187	-0.121604	-0.178185	-0.346372	0.382313	0.347102	1.207	0	0	-0.315187	-0.0708718	-0.506966	0.536289	1.06301	0	0
0.5	-2.93048	1.15312	1.47466	0.579574	0.967908	1.01152	0.623267	0.0709896	-0.0497889	0.23112	-0.162709	0	0	0.507476	-0.252118	-0.159627	1.08821	-0.698132	0	0	0.328962	0.124202	-0.128221	-0.172266	-0.348914	0.390862	0.351591	1.2043	0	0	-0.316811	-0.0721212	-0.504783	0.541747	1.06411	0	0
0.51	-2.92936	1.15123	1.47975	0.578729	0.95641	1.01249	0.612567	0.071301	-0.0518641	0.230154	-0.155738	0	0	0.54144	-0.246762	-0.135591	1.13145	-0.695734	0	0	0.331519	0.122305	-0.13031	-0.168038	-0.351138	0.394415	0.357202	1.20232	0	0	-0.317233	-0.073741	-0.501997	0.544879	1.06405	0	0
0.52	-2.9319	1.14986	1.48581	0.577793	0.944795	1.01368	0.601492	0.0712426	-0.0530608	0.228998	-0.149009	0	0	0.571844	-0.239212	-0.115486	1.16981	-0.657559	0	0	0.334448	0.11983	-0.129117	-0.165548	-0.353691	0.394275	0.365203	1.20069	0	0	-0.317701	-0.0755069	-0.498527	0.546085	1.06244	0	0
0.53	-2.93823	1.14937	1.49335	0.576719	0.933125	1.01513	0.589634	0.0708494	-0.0534021	0.228112	-0.143521	0	0	0.598839	-0.230439	-0.100521	1.20213	-0.61384	0	0	0.337094	0.116225	-0.124978	-0.16391	-0.355707	0.390676	0.373801	1.20101	0	0	-0.317691	-0.0774952	-0.495512	0.544996	1.0599	0	0
0.54	-2.94475	1.15165	1.49811	0.575513	0.921263	1.01678	0.574541	0.0715538	-0.05306	0.22709	-0.138334	0	0	0.620555	-0.22672	-0.0992684	1.23259	-0.558802	0	0	0.336713	0.113223	-0.118228	-0.163252	-0.358069	0.382703	0.385481	1.20359	0	0	-0.3187	-0.0789863	-0.492938	0.544903	1.05653	0	0
0.55	-2.9567	1.15406	1.50736	0.574481	0.90945	1.01867	0.559484	0.0698167	-0.0525692	0.226609	-0.134295	0	0	0.640926	-0.221917	-0.10672	1.25473	-0.491327	0	0	0.337095	0.10831	-0.110292	-0.16289	-0.359532	0.371249	0.396669	1.20909	0	0	-0.319142	-0.0800272	-0.492148	0.542132	1.05337	0	0
0.56	-2.96593	1.15778	1.51296	0.573274	0.897557	1.02056	0.542226	0.0700299	-0.052511	0.225128	-0.131888	0	0	0.658065	-0.221196	-0.111445	1.27357	-0.484806	0	0	0.335622	0.104046	-0.103656	-0.159951	-0.360937	0.365753	0.406855	1.21186	0	0	-0.322289	-0.0800935	-0.494476	0.542894	1.05162	0	0
0.57	-2.98221	1.16171	1.52667	0.572213	0.885652	1.02285	0.52471	0.0665005	-0.0528278	0.224115	-0.128756	0	0	0.668317	-0.214696	-0.11832	1.2756	-0.463327	0	0	0.335054	0.0964963	-0.0968497	-0.157606	-0.360575	0.356424	0.41586	1.21566	0	0	-0.323162	-0.0809061	-0.496922	0.538448	1.05132	0	0
0.58	-2.99361	1.16703	1.5348	0.571184	0.873804	1.0249	0.505165	0.0650703	-0.0540401	0.221515	-0.126481	0	0	0.683122	-0.213564	-0.128735	1.28361	-0.445525	0	0	0.331496	0.0909817	-0.0905135	-0.155636	-0.36139	0.345092	0.428996	1.21946	0	0	-0.326046	-0.0806281	-0.499612	0.5389	1.05299	0	0
0.59	-3.00314	1.17166	1.54068	0.570271	0.862174	1.02661	0.486414	0.0641279	-0.0565109	0.217947	-0.125279	0	0	0.703171	-0.21461	-0.139175	1.29505	-0.431792	0	0	0.327605	0.0864087	-0.0842605	-0.154935	-0.363339	0.332604	0.446337	1.22414	0	0	-0.330587	-0.0792367	-0.50288	0.54362	1.05558	0	0
0.6	-3.01592	1.17597	1.54968	0.569444	0.850556	1.02838	0.468113	0.0613521	-0.0611517	0.214144	-0.12546	0	0	0.717074	-0.21498	-0.153397	1.29632	-0.409187	0	0	0.324329	0.080956	-0.0763652	-0.155955	-0.364659	0.316363	0.464534	1.23178	0	0	-0.333422	-0.0775096	-0.5075	0.546407	1.05954	0	0
0.61	-3.02562	1.17992	1.556	0.568703	0.839058	1.03	0.450105	0.0597086	-0.0674987	0.210414	-0.126366	0	0	0.734957	-0.216587	-0.164337	1.30071	-0.39708	0	0	0.320721	0.0765415	-0.0691366	-0.156949	-0.366545	0.302064	0.483957	1.23855	0	0	-0.336671	-0.07518	-0.512199	0.551238	1.06339	0	0
0.62	-3.03649	1.18471	1.56342	0.568027	0.827545	1.03178	0.431181	0.0573888	-0.0749948	0.206901	-0.127704	0	0	0.746909	-0.217341	-0.177921	1.2943	-0.383099	0	0	0.316108	0.0718763	-0.0600271	-0.160266	-0.36777	0.282937	0.504952	1.24823	0	0	-0.337791	-0.0728321	-0.517264	0.554717	1.06923	0	0
0.63	-3.05328	1.19148	1.57557	0.567194	0.815853	1.03396	0.410305	0.0529681	-0.0838914	0.203647	-0.129926	0	0	0.743417	-0.219908	-0.206823	1.26804	-0.357268	0	0	0.3096	0.0651691	-0.0478248	-0.16358	-0.366266	0.260258	0.522673	1.26135	0	0	-0.335813	-0.0715719	-0.522123	0.554344	1.07636	0	0
0.64	-3.06667	1.19491	1.58482	0.566454	0.80455	1.03554	0.39348	0.0497855	-0.0906329	0.201002	-0.131737	0	0	0.752703	-0.22025	-0.224777	1.25104	-0.341437	0	0	0.305891	0.0596411	-0.0379911	-0.166255	-0.365836	0.240389	0.542397	1.27106	0	0	-0.335885	-0.0696534	-0.526373	0.557676	1.0823	0	0
